<?xml version="1.0" encoding="utf-8"?>
<!-- Generator: Adobe Illustrator 17.1.0, SVG Export Plug-In . SVG Version: 6.00 Build 0)  -->
<!DOCTYPE svg PUBLIC "-//W3C//DTD SVG 1.1//EN" "http://www.w3.org/Graphics/SVG/1.1/DTD/svg11.dtd">
<svg version="1.1" id="Layer_1" xmlns="http://www.w3.org/2000/svg" xmlns:xlink="http://www.w3.org/1999/xlink" x="0px" y="0px"
	 viewBox="846 0 100 100" enable-background="new 846 0 100 100" xml:space="preserve">
<g>
	<path fill="#0099FF" d="M893.1,59h4.9l4.2-19.3c0.7-3.1-0.4-5.1-3.5-5.1c-1.8,0-3.2,0.5-6.1,2.8c-0.6-1.9-1.2-2.8-3.7-2.8
		c-2.3,0-3.6,1.1-6.1,2.8l0.5-2.3h-4.7l-5.2,24h4.9l4.1-18.8c1.3-0.8,2.4-1.6,3.5-1.6c1,0,1.6,0.7,1.3,1.9L883.3,59h4.9l4.1-18.8
		c1.3-0.8,2.4-1.6,3.5-1.6c1,0,1.6,0.7,1.4,1.9L893.1,59z"/>
	<path fill="#0099FF" d="M908.4,50L908.4,50l0.1-15h-5l0.7,20c0.1,1.1,0.1,2.2-0.2,3.1c-0.6,2.5-1.6,3.8-4.1,3.8h-1.2l-0.9,4h2.1
		c3.7,0,6-1.4,8-5.7l10.6-22.8c-0.1-0.9-0.3-2.5-0.5-2.5h-3.3L908.4,50z"/>
</g>
</svg>
