<?xml version="1.0" encoding="utf-8"?>
<!-- Generator: Adobe Illustrator 17.1.0, SVG Export Plug-In . SVG Version: 6.00 Build 0)  -->
<!DOCTYPE svg PUBLIC "-//W3C//DTD SVG 1.1//EN" "http://www.w3.org/Graphics/SVG/1.1/DTD/svg11.dtd">
<svg version="1.1" id="Layer_1" xmlns="http://www.w3.org/2000/svg" xmlns:xlink="http://www.w3.org/1999/xlink" x="0px" y="0px"
	 viewBox="846 0 100 100" enable-background="new 846 0 100 100" xml:space="preserve">
<g>
	<path fill="#0099FF" d="M890.5,67h9.3l8-36.6c1.3-5.8-0.8-9.6-6.6-9.6c-3.4,0-6.1,0.9-11.5,5.2c-1.2-3.7-2.3-5.4-7-5.4
		c-4.4,0-6.8,1.8-11.5,5.1l1-4.7h-8.8l-9.9,46h9.3l7.8-35.5c2.5-1.6,4.6-3.1,6.6-3.1c1.8,0,3,1.4,2.5,3.6L872,67h9.3l7.8-35.5
		c2.4-1.6,4.5-3.1,6.5-3.1c1.8,0,3.1,1.4,2.6,3.6L890.5,67z"/>
	<path fill="#0099FF" d="M919.4,50h-0.2l0.4-29h-9.5l1.3,38.1c0.1,2.2,0.1,4-0.3,5.8c-1,4.7-3.1,7.1-7.7,7.1h-2.2l-1.7,8h3.9
		c7,0,11.3-2.6,15.1-10.7l20.1-43.3c-0.2-1.6-0.5-4.9-0.9-4.9h-6.3L919.4,50z"/>
</g>
</svg>
