<?xml version="1.0" encoding="utf-8"?>
<!-- Generator: Adobe Illustrator 17.1.0, SVG Export Plug-In . SVG Version: 6.00 Build 0)  -->
<!DOCTYPE svg PUBLIC "-//W3C//DTD SVG 1.1//EN" "http://www.w3.org/Graphics/SVG/1.1/DTD/svg11.dtd">
<svg version="1.1" id="Layer_1" xmlns="http://www.w3.org/2000/svg" xmlns:xlink="http://www.w3.org/1999/xlink" x="0px" y="0px"
	 viewBox="90 0 612 612" enable-background="new 90 0 612 612" xml:space="preserve">
<path d="M396,0C227.1,0,90,137.1,90,306s137.1,306,306,306s306-137.1,306-306S564.9,0,396,0z M527,323.1L405.2,444.9
	c-4.3,4.3-10.4,6.7-17.1,6.7c-6.1,0-12.2-2.4-17.1-6.7l-14.1-14.1c-4.3-4.3-7.3-10.4-7.3-17.1c0-6.1,2.4-12.2,7.3-16.5l55.1-54.5
	H280.3c-13.5,0-25.1-12.2-25.1-24.5v-24.5c0-12.9,11.6-24.5,25.1-24.5h131.6l-55.1-54.5c-4.3-4.3-7.3-10.4-7.3-16.5
	c0-6.1,2.4-12.2,7.3-16.5l14.1-14.1c4.3-4.3,10.4-7.3,17.1-7.3c6.1,0,12.2,2.4,17.1,7.3L527,289.5c4.3,4.3,6.7,10.4,6.7,17.1
	C533.7,312.1,531.3,318.2,527,323.1z"/>
</svg>
