<?xml version="1.0" encoding="utf-8"?>
<!-- Generator: Adobe Illustrator 17.1.0, SVG Export Plug-In . SVG Version: 6.00 Build 0)  -->
<!DOCTYPE svg PUBLIC "-//W3C//DTD SVG 1.1//EN" "http://www.w3.org/Graphics/SVG/1.1/DTD/svg11.dtd" [
	<!ENTITY ns_flows "http://ns.adobe.com/Flows/1.0/">
	<!ENTITY ns_extend "http://ns.adobe.com/Extensibility/1.0/">
	<!ENTITY ns_ai "http://ns.adobe.com/AdobeIllustrator/10.0/">
	<!ENTITY ns_graphs "http://ns.adobe.com/Graphs/1.0/">
]>
<svg version="1.1" id="Layer_1" xmlns:x="&ns_extend;" xmlns:i="&ns_ai;" xmlns:graph="&ns_graphs;"
	 xmlns="http://www.w3.org/2000/svg" xmlns:xlink="http://www.w3.org/1999/xlink" xmlns:a="http://ns.adobe.com/AdobeSVGViewerExtensions/3.0/"
	 x="0px" y="0px" viewBox="0 0 100 100" enable-background="new 0 0 100 100" xml:space="preserve">
<path fill="#FFFFFF" d="M50,0C22.4,0,0,22.4,0,50c0,27.6,22.4,50,50,50s50-22.4,50-50C100,22.4,77.6,0,50,0z M71.4,52.8L51.5,72.7
	c-0.7,0.7-1.7,1.1-2.8,1.1c-1,0-2-0.4-2.8-1.1l-2.3-2.3c-0.7-0.7-1.2-1.7-1.2-2.8c0-1,0.4-2,1.2-2.7l9-8.9H31.1c-2.2,0-4.1-2-4.1-4
	V48c0-2.1,1.9-4,4.1-4h21.5l-9-8.9c-0.7-0.7-1.2-1.7-1.2-2.7c0-1,0.4-2,1.2-2.7l2.3-2.3c0.7-0.7,1.7-1.2,2.8-1.2c1,0,2,0.4,2.8,1.2
	l19.9,19.9c0.7,0.7,1.1,1.7,1.1,2.8C72.5,51,72.1,52,71.4,52.8z"/>
</svg>
