<?xml version="1.0" encoding="utf-8"?>
<!-- Generator: Adobe Illustrator 17.1.0, SVG Export Plug-In . SVG Version: 6.00 Build 0)  -->
<!DOCTYPE svg PUBLIC "-//W3C//DTD SVG 1.1//EN" "http://www.w3.org/Graphics/SVG/1.1/DTD/svg11.dtd">
<svg version="1.1" id="Layer_1" xmlns="http://www.w3.org/2000/svg" xmlns:xlink="http://www.w3.org/1999/xlink" x="0px" y="0px"
	 viewBox="846 0 100 100" enable-background="new 846 0 100 100" xml:space="preserve">
<path fill="#0099FF" d="M917.8,38.7c0.7,1,0.9,2.2,0.5,3.5l-7.4,24.5c-0.3,1.2-1,2.1-2.1,2.9c-1,0.8-2.1,1.2-3.3,1.2h-24.9
	c-1.4,0-2.7-0.5-4-1.4c-1.3-1-2.2-2.1-2.7-3.6c-0.4-1.2-0.5-2.4-0.1-3.4c0-0.1,0-0.3,0.1-0.7c0.1-0.4,0.1-0.7,0.1-1
	c0-0.1,0-0.3-0.1-0.6c-0.1-0.2-0.1-0.4-0.1-0.5c0-0.2,0.1-0.4,0.2-0.6c0.1-0.2,0.3-0.4,0.4-0.6s0.3-0.5,0.4-0.6
	c0.4-0.7,0.8-1.5,1.2-2.5s0.7-1.8,0.8-2.5c0.1-0.2,0.1-0.5,0-0.8c0-0.4,0-0.6,0-0.8c0.1-0.2,0.2-0.5,0.5-0.8s0.4-0.5,0.5-0.6
	c0.4-0.6,0.8-1.5,1.1-2.5c0.4-1,0.6-1.8,0.7-2.4c0-0.2,0-0.5-0.1-0.9c-0.1-0.4-0.1-0.7,0-0.8c0.1-0.2,0.3-0.5,0.6-0.8
	c0.3-0.3,0.5-0.5,0.6-0.6c0.3-0.5,0.7-1.2,1.1-2.3c0.4-1.1,0.7-1.9,0.7-2.6c0-0.1,0-0.4-0.1-0.7c-0.1-0.3-0.1-0.6-0.1-0.7
	c0-0.1,0.1-0.3,0.2-0.5s0.3-0.4,0.5-0.6s0.4-0.4,0.5-0.6c0.1-0.2,0.3-0.5,0.4-0.8c0.2-0.3,0.3-0.6,0.4-0.9c0.1-0.3,0.3-0.6,0.4-1
	s0.3-0.6,0.5-0.9c0.2-0.2,0.4-0.4,0.7-0.6c0.3-0.2,0.6-0.3,1-0.3c0.4,0,0.8,0,1.3,0.1l0,0.1c0.7-0.2,1.1-0.2,1.4-0.2h20.6
	c1.3,0,2.4,0.5,3.1,1.5s0.9,2.2,0.5,3.5l-7.4,24.5c-0.6,2.1-1.3,3.5-1.9,4.1c-0.6,0.6-1.8,0.9-3.5,0.9h-23.5c-0.5,0-0.8,0.1-1,0.4
	c-0.2,0.3-0.2,0.7,0,1.2c0.4,1.3,1.7,1.9,3.9,1.9h24.9c0.5,0,1-0.1,1.5-0.4c0.5-0.3,0.8-0.7,0.9-1.1l8.1-26.7
	c0.1-0.4,0.2-0.9,0.1-1.5C916.9,37.8,917.4,38.2,917.8,38.7z M889.1,38.8c-0.1,0.2-0.1,0.4,0.1,0.6c0.1,0.2,0.3,0.3,0.5,0.3h16.4
	c0.2,0,0.5-0.1,0.7-0.3c0.2-0.2,0.4-0.4,0.4-0.6l0.6-1.7c0.1-0.2,0.1-0.4-0.1-0.6c-0.1-0.2-0.3-0.3-0.5-0.3h-16.4
	c-0.2,0-0.5,0.1-0.7,0.3c-0.2,0.2-0.4,0.4-0.4,0.6L889.1,38.8z M886.8,45.7c-0.1,0.2-0.1,0.4,0.1,0.6c0.1,0.2,0.3,0.3,0.5,0.3h16.4
	c0.2,0,0.5-0.1,0.7-0.3c0.2-0.2,0.4-0.4,0.4-0.6l0.6-1.7c0.1-0.2,0.1-0.4-0.1-0.6c-0.1-0.2-0.3-0.3-0.5-0.3h-16.4
	c-0.2,0-0.5,0.1-0.7,0.3c-0.2,0.2-0.4,0.4-0.4,0.6L886.8,45.7z"/>
</svg>
