<?xml version="1.0" encoding="utf-8"?>
<!-- Generator: Adobe Illustrator 17.1.0, SVG Export Plug-In . SVG Version: 6.00 Build 0)  -->
<!DOCTYPE svg PUBLIC "-//W3C//DTD SVG 1.1//EN" "http://www.w3.org/Graphics/SVG/1.1/DTD/svg11.dtd">
<svg version="1.1" id="Layer_1" xmlns="http://www.w3.org/2000/svg" xmlns:xlink="http://www.w3.org/1999/xlink" x="0px" y="0px"
	 viewBox="846 0 100 100" enable-background="new 846 0 100 100" xml:space="preserve">
<path fill="#0099FF" d="M937.2,28.7c1.4,1.9,1.7,4.1,0.9,6.6l-14,46.2c-0.6,2.2-1.9,4-3.9,5.5c-2,1.5-4,2.2-6.3,2.2h-47.1
	c-2.6,0-5.1-0.9-7.6-2.7c-2.4-1.8-4.1-4.1-5.1-6.7c-0.8-2.3-0.9-4.4-0.1-6.5c0-0.1,0.1-0.6,0.2-1.4c0.1-0.8,0.2-1.4,0.2-1.9
	c0-0.3,0-0.6-0.2-1.1c-0.1-0.5-0.2-0.8-0.2-1c0.1-0.4,0.2-0.7,0.4-1.1s0.5-0.7,0.8-1.2c0.4-0.5,0.6-0.9,0.8-1.2
	c0.8-1.3,1.5-2.8,2.3-4.7c0.7-1.8,1.3-3.4,1.5-4.7c0.1-0.3,0.1-0.9,0-1.5s-0.1-1.2,0-1.4c0.1-0.4,0.4-0.9,0.9-1.4
	c0.5-0.6,0.8-1,0.9-1.2c0.7-1.2,1.4-2.8,2.1-4.7c0.7-1.9,1.1-3.4,1.3-4.6c0-0.3,0-0.9-0.1-1.6s-0.1-1.3,0-1.4c0.1-0.4,0.5-1,1.1-1.6
	c0.6-0.6,1-1,1.1-1.1c0.6-0.9,1.4-2.3,2.2-4.3c0.8-2,1.3-3.6,1.4-4.9c0-0.3,0-0.7-0.2-1.3c-0.1-0.6-0.2-1-0.1-1.4
	c0.1-0.3,0.2-0.6,0.5-0.9c0.2-0.3,0.5-0.7,0.9-1.2c0.4-0.4,0.7-0.8,0.9-1.1c0.3-0.4,0.6-0.9,0.8-1.6c0.3-0.6,0.5-1.2,0.8-1.8
	s0.5-1.2,0.8-1.8c0.3-0.7,0.7-1.2,1-1.6c0.3-0.4,0.8-0.8,1.4-1.2s1.2-0.6,1.8-0.6c0.7,0,1.5,0.1,2.4,0.3l-0.1,0.2
	c1.3-0.3,2.2-0.5,2.6-0.5h38.8c2.5,0,4.5,1,5.8,2.9s1.7,4.1,0.9,6.6l-14,46.2c-1.2,4-2.4,6.7-3.6,7.8s-3.4,1.8-6.6,1.8h-44.4
	c-0.9,0-1.6,0.3-1.9,0.8c-0.4,0.5-0.4,1.3-0.1,2.2c0.8,2.4,3.3,3.6,7.3,3.6H914c1,0,1.9-0.3,2.9-0.8c0.9-0.5,1.5-1.2,1.8-2.1
	l15.3-50.4c0.2-0.7,0.3-1.7,0.3-2.9C935.5,27,936.5,27.7,937.2,28.7z M882.9,28.8c-0.1,0.4-0.1,0.8,0.1,1.1c0.2,0.3,0.5,0.5,1,0.5
	h31c0.4,0,0.9-0.2,1.3-0.5c0.4-0.3,0.7-0.7,0.8-1.1l1.1-3.3c0.1-0.4,0.1-0.8-0.1-1.1s-0.5-0.5-1-0.5h-31c-0.4,0-0.9,0.2-1.3,0.5
	s-0.7,0.7-0.8,1.1L882.9,28.8z M878.6,41.8c-0.1,0.4-0.1,0.8,0.1,1.1c0.2,0.3,0.5,0.5,1,0.5h31c0.4,0,0.9-0.2,1.3-0.5
	c0.4-0.3,0.7-0.7,0.8-1.1l1.1-3.3c0.1-0.4,0.1-0.8-0.1-1.1s-0.5-0.5-1-0.5h-31c-0.4,0-0.9,0.2-1.3,0.5c-0.4,0.3-0.7,0.7-0.8,1.1
	L878.6,41.8z"/>
</svg>
