<?xml version="1.0" encoding="utf-8"?>
<!-- Generator: Adobe Illustrator 17.1.0, SVG Export Plug-In . SVG Version: 6.00 Build 0)  -->
<!DOCTYPE svg PUBLIC "-//W3C//DTD SVG 1.1//EN" "http://www.w3.org/Graphics/SVG/1.1/DTD/svg11.dtd">
<svg version="1.1" id="Layer_1" xmlns="http://www.w3.org/2000/svg" xmlns:xlink="http://www.w3.org/1999/xlink" x="0px" y="0px"
	 viewBox="846 0 100 100" enable-background="new 846 0 100 100" xml:space="preserve">
<path fill="#0099FF" d="M908.9,45.2c0,2.3-0.8,4.5-2.4,6.5c-1.6,2-3.7,3.5-6.4,4.7c-2.7,1.1-5.7,1.7-8.9,1.7c-1.4,0-2.9-0.1-4.4-0.4
	c-2.1,1.5-4.4,2.5-7,3.2c-0.6,0.2-1.3,0.3-2.2,0.4h-0.1c-0.2,0-0.4-0.1-0.5-0.2c-0.2-0.1-0.3-0.3-0.3-0.5c0-0.1,0-0.1,0-0.2
	s0-0.1,0-0.2c0-0.1,0-0.1,0.1-0.2l0.1-0.1l0.1-0.1l0.1-0.1l0.1-0.1l0.1-0.1c0.1-0.1,0.3-0.3,0.6-0.6c0.3-0.3,0.5-0.6,0.7-0.7
	s0.3-0.4,0.6-0.7s0.5-0.6,0.6-1s0.3-0.7,0.5-1.1c-2.1-1.2-3.7-2.7-4.9-4.4c-1.2-1.8-1.8-3.6-1.8-5.6c0-2.3,0.8-4.5,2.4-6.5
	c1.6-2,3.7-3.5,6.4-4.7c2.7-1.1,5.7-1.7,8.9-1.7c3.2,0,6.2,0.6,8.9,1.7c2.7,1.1,4.9,2.7,6.4,4.7C908.1,40.7,908.9,42.9,908.9,45.2z
	 M918.5,51.6c0,2-0.6,3.9-1.8,5.6c-1.2,1.7-2.8,3.2-4.9,4.4c0.2,0.4,0.3,0.8,0.5,1.1c0.2,0.3,0.4,0.7,0.6,1s0.4,0.6,0.6,0.7
	s0.4,0.4,0.7,0.7s0.5,0.5,0.6,0.6c0,0,0.1,0.1,0.1,0.1s0.1,0.1,0.1,0.1c0,0,0.1,0.1,0.1,0.1s0.1,0.1,0.1,0.1l0.1,0.1l0.1,0.2l0,0.2
	l0,0.2c-0.1,0.2-0.2,0.4-0.3,0.6c-0.2,0.1-0.4,0.2-0.6,0.2c-0.8-0.1-1.6-0.3-2.2-0.4c-2.6-0.7-4.9-1.7-7-3.2c-1.5,0.3-3,0.4-4.4,0.4
	c-4.5,0-8.5-1.1-11.9-3.3c1,0.1,1.7,0.1,2.2,0.1c2.7,0,5.3-0.4,7.8-1.1c2.5-0.8,4.7-1.8,6.6-3.2c2.1-1.5,3.7-3.3,4.8-5.3
	c1.1-2,1.7-4.1,1.7-6.4c0-1.3-0.2-2.6-0.6-3.8c2.2,1.2,3.9,2.7,5.1,4.5C917.9,47.6,918.5,49.5,918.5,51.6z"/>
</svg>
