<?xml version="1.0" encoding="utf-8"?>
<!-- Generator: Adobe Illustrator 17.1.0, SVG Export Plug-In . SVG Version: 6.00 Build 0)  -->
<!DOCTYPE svg PUBLIC "-//W3C//DTD SVG 1.1//EN" "http://www.w3.org/Graphics/SVG/1.1/DTD/svg11.dtd">
<svg version="1.1" id="Layer_1" xmlns="http://www.w3.org/2000/svg" xmlns:xlink="http://www.w3.org/1999/xlink" x="0px" y="0px"
	 viewBox="256 0 100 100" enable-background="new 256 0 100 100" xml:space="preserve">
<path fill="#0099FF" d="M330.3,40.8c0,4.4-1.5,8.5-4.5,12.3c-3,3.8-7,6.6-12.1,8.9c-5.1,2.1-10.8,3.2-16.8,3.2
	c-2.7,0-5.5-0.2-8.3-0.8c-4,2.8-8.3,4.7-13.3,6.1c-1.1,0.4-2.5,0.6-4.2,0.8h-0.2c-0.4,0-0.8-0.2-0.9-0.4c-0.4-0.2-0.6-0.6-0.6-0.9
	c0-0.2,0-0.2,0-0.4c0-0.2,0-0.2,0-0.4c0-0.2,0-0.2,0.2-0.4l0.2-0.2l0.2-0.2l0.2-0.2l0.2-0.2l0.2-0.2c0.2-0.2,0.6-0.6,1.1-1.1
	s0.9-1.1,1.3-1.3c0.4-0.2,0.6-0.8,1.1-1.3s0.9-1.1,1.1-1.9c0.2-0.8,0.6-1.3,0.9-2.1c-4-2.3-7-5.1-9.3-8.3c-2.3-3.4-3.4-6.8-3.4-10.6
	c0-4.4,1.5-8.5,4.5-12.3c3-3.8,7-6.6,12.1-8.9c5.1-2.1,10.8-3.2,16.8-3.2s11.7,1.1,16.8,3.2c5.1,2.1,9.3,5.1,12.1,8.9
	C328.8,32.3,330.3,36.5,330.3,40.8z M348.5,52.9c0,3.8-1.1,7.4-3.4,10.6c-2.3,3.2-5.3,6.1-9.3,8.3c0.4,0.8,0.6,1.5,0.9,2.1
	s0.8,1.3,1.1,1.9c0.4,0.6,0.8,1.1,1.1,1.3c0.4,0.2,0.8,0.8,1.3,1.3s0.9,0.9,1.1,1.1l0.2,0.2l0.2,0.2l0.2,0.2l0.2,0.2l0.2,0.2
	l0.2,0.4v0.4v0.4c-0.2,0.4-0.4,0.8-0.6,1.1c-0.4,0.2-0.8,0.4-1.1,0.4c-1.5-0.2-3-0.6-4.2-0.8c-4.9-1.3-9.3-3.2-13.3-6.1
	c-2.8,0.6-5.7,0.8-8.3,0.8c-8.5,0-16.1-2.1-22.5-6.2c1.9,0.2,3.2,0.2,4.2,0.2c5.1,0,10-0.8,14.8-2.1c4.7-1.5,8.9-3.4,12.5-6.1
	c4-2.8,7-6.2,9.1-10c2.1-3.8,3.2-7.8,3.2-12.1c0-2.5-0.4-4.9-1.1-7.2c4.2,2.3,7.4,5.1,9.7,8.5C347.4,45.4,348.5,49,348.5,52.9z"/>
</svg>
