<?xml version="1.0" encoding="utf-8"?>
<!-- Generator: Adobe Illustrator 17.1.0, SVG Export Plug-In . SVG Version: 6.00 Build 0)  -->
<!DOCTYPE svg PUBLIC "-//W3C//DTD SVG 1.1//EN" "http://www.w3.org/Graphics/SVG/1.1/DTD/svg11.dtd">
<svg version="1.1" id="Layer_1" xmlns="http://www.w3.org/2000/svg" xmlns:xlink="http://www.w3.org/1999/xlink" x="0px" y="0px"
	 viewBox="846 0 100 100" enable-background="new 846 0 100 100" xml:space="preserve">
<path fill="#0099FF" d="M915.5,53.8V34.3c0-0.2-0.1-0.4-0.2-0.5s-0.3-0.2-0.5-0.2h-37.5c-0.2,0-0.4,0.1-0.5,0.2s-0.2,0.3-0.2,0.5
	v19.5c0,0.2,0.1,0.4,0.2,0.5s0.3,0.2,0.5,0.2h37.5c0.2,0,0.4-0.1,0.5-0.2S915.5,54,915.5,53.8z M918.5,34.3v25.5
	c0,1-0.4,1.9-1.1,2.6s-1.6,1.1-2.6,1.1H902c0,0.6,0.1,1.2,0.4,1.8s0.5,1.2,0.8,1.7s0.4,0.8,0.4,1c0,0.4-0.1,0.8-0.4,1.1
	s-0.6,0.4-1.1,0.4h-12c-0.4,0-0.8-0.1-1.1-0.4s-0.4-0.6-0.4-1.1c0-0.2,0.1-0.6,0.4-1s0.5-1,0.8-1.6s0.4-1.2,0.4-1.8h-12.8
	c-1,0-1.9-0.4-2.6-1.1s-1.1-1.6-1.1-2.6V34.3c0-1,0.4-1.9,1.1-2.6s1.6-1.1,2.6-1.1h37.5c1,0,1.9,0.4,2.6,1.1S918.5,33.2,918.5,34.3z
	"/>
</svg>
