<?xml version="1.0" encoding="utf-8"?>
<!-- Generator: Adobe Illustrator 17.1.0, SVG Export Plug-In . SVG Version: 6.00 Build 0)  -->
<!DOCTYPE svg PUBLIC "-//W3C//DTD SVG 1.1//EN" "http://www.w3.org/Graphics/SVG/1.1/DTD/svg11.dtd">
<svg version="1.1" id="Layer_1" xmlns="http://www.w3.org/2000/svg" xmlns:xlink="http://www.w3.org/1999/xlink" x="0px" y="0px"
	 viewBox="846 0 100 100" enable-background="new 846 0 100 100" xml:space="preserve">
<path fill="#0099FF" d="M932.8,57.1V20.3c0-0.4-0.1-0.7-0.4-1c-0.3-0.3-0.6-0.4-1-0.4h-70.8c-0.4,0-0.7,0.1-1,0.4
	c-0.3,0.3-0.4,0.6-0.4,1v36.8c0,0.4,0.1,0.7,0.4,1c0.3,0.3,0.6,0.4,1,0.4h70.8c0.4,0,0.7-0.1,1-0.4
	C932.7,57.8,932.8,57.5,932.8,57.1z M938.5,20.3v48.2c0,1.9-0.7,3.6-2.1,5s-3.1,2.1-5,2.1h-24.1c0,1.1,0.2,2.2,0.7,3.4
	s0.9,2.2,1.4,3.1s0.7,1.5,0.7,1.9c0,0.8-0.3,1.4-0.8,2c-0.6,0.6-1.2,0.8-2,0.8h-22.7c-0.8,0-1.4-0.3-2-0.8c-0.6-0.6-0.8-1.2-0.8-2
	c0-0.4,0.2-1.1,0.7-1.9c0.5-0.9,0.9-1.9,1.4-3.1s0.7-2.3,0.7-3.5h-24.1c-1.9,0-3.6-0.7-5-2.1s-2.1-3.1-2.1-5V20.3
	c0-1.9,0.7-3.6,2.1-5s3.1-2.1,5-2.1h70.8c1.9,0,3.6,0.7,5,2.1S938.5,18.3,938.5,20.3z"/>
</svg>
