<?xml version="1.0" encoding="utf-8"?>
<!-- Generator: Adobe Illustrator 17.1.0, SVG Export Plug-In . SVG Version: 6.00 Build 0)  -->
<!DOCTYPE svg PUBLIC "-//W3C//DTD SVG 1.1//EN" "http://www.w3.org/Graphics/SVG/1.1/DTD/svg11.dtd">
<svg version="1.1" id="Layer_1" xmlns="http://www.w3.org/2000/svg" xmlns:xlink="http://www.w3.org/1999/xlink" x="0px" y="0px"
	 viewBox="846 0 100 100" enable-background="new 846 0 100 100" xml:space="preserve">
<path fill="#0099FF" d="M910.2,35.8c0-3.9-1.4-7.2-4.2-10c-2.8-2.8-6.1-4.2-10-4.2s-7.2,1.4-10,4.2c-2.8,2.8-4.2,6.1-4.2,10
	s1.4,7.2,4.2,10c2.8,2.8,6.1,4.2,10,4.2s7.2-1.4,10-4.2C908.8,43.1,910.2,39.7,910.2,35.8z M924.3,35.8c0,4-0.6,7.3-1.8,9.9
	l-20.1,42.8c-0.6,1.2-1.5,2.2-2.6,2.9c-1.2,0.7-2.4,1.1-3.7,1.1s-2.6-0.4-3.7-1.1c-1.2-0.7-2-1.7-2.6-2.9l-20.2-42.8
	c-1.2-2.6-1.8-5.9-1.8-9.9c0-7.8,2.8-14.5,8.3-20c5.5-5.5,12.2-8.3,20-8.3s14.5,2.8,20,8.3C921.6,21.3,924.3,28,924.3,35.8z"/>
</svg>
