<?xml version="1.0" encoding="utf-8"?>
<!-- Generator: Adobe Illustrator 17.1.0, SVG Export Plug-In . SVG Version: 6.00 Build 0)  -->
<!DOCTYPE svg PUBLIC "-//W3C//DTD SVG 1.1//EN" "http://www.w3.org/Graphics/SVG/1.1/DTD/svg11.dtd" [
	<!ENTITY ns_flows "http://ns.adobe.com/Flows/1.0/">
	<!ENTITY ns_extend "http://ns.adobe.com/Extensibility/1.0/">
	<!ENTITY ns_ai "http://ns.adobe.com/AdobeIllustrator/10.0/">
	<!ENTITY ns_graphs "http://ns.adobe.com/Graphs/1.0/">
]>
<svg version="1.1" id="Layer_1" xmlns:x="&ns_extend;" xmlns:i="&ns_ai;" xmlns:graph="&ns_graphs;"
	 xmlns="http://www.w3.org/2000/svg" xmlns:xlink="http://www.w3.org/1999/xlink" xmlns:a="http://ns.adobe.com/AdobeSVGViewerExtensions/3.0/"
	 x="0px" y="0px" viewBox="0 0 100 100" enable-background="new 0 0 100 100" xml:space="preserve">
<circle fill="#0099FF" cx="50" cy="50" r="50"/>
<path fill="#FFFFFF" d="M64,47.7L53.4,70.4c-0.6,1.3-2,2.1-3.4,2.1s-2.8-0.8-3.3-2.1L36,47.7c-0.8-1.6-1-3.5-1-5.2
	c0-8.3,6.7-15,15-15s15,6.7,15,15C65,44.3,64.8,46.1,64,47.7z M50,35c-4.1,0-7.5,3.4-7.5,7.5S45.9,50,50,50s7.5-3.4,7.5-7.5
	S54.1,35,50,35z"/>
</svg>
