<?xml version="1.0" encoding="utf-8"?>
<!-- Generator: Adobe Illustrator 17.1.0, SVG Export Plug-In . SVG Version: 6.00 Build 0)  -->
<!DOCTYPE svg PUBLIC "-//W3C//DTD SVG 1.1//EN" "http://www.w3.org/Graphics/SVG/1.1/DTD/svg11.dtd">
<svg version="1.1" id="Layer_1" xmlns="http://www.w3.org/2000/svg" xmlns:xlink="http://www.w3.org/1999/xlink" x="0px" y="0px"
	 viewBox="846 0 100 100" enable-background="new 846 0 100 100" xml:space="preserve">
<path fill="#0099FF" d="M903.5,42.5c0-2.1-0.7-3.8-2.2-5.3S898.1,35,896,35s-3.8,0.7-5.3,2.2s-2.2,3.2-2.2,5.3s0.7,3.8,2.2,5.3
	s3.2,2.2,5.3,2.2s3.8-0.7,5.3-2.2S903.5,44.6,903.5,42.5z M911,42.5c0,2.1-0.3,3.9-1,5.2l-10.7,22.7c-0.3,0.6-0.8,1.2-1.4,1.5
	s-1.3,0.6-2,0.6s-1.4-0.2-2-0.6s-1.1-0.9-1.4-1.5L882,47.7c-0.6-1.4-1-3.1-1-5.2c0-4.1,1.5-7.7,4.4-10.6s6.5-4.4,10.6-4.4
	s7.7,1.5,10.6,4.4S911,38.4,911,42.5z"/>
</svg>
